<svg width="286" height="231" viewBox="0 0 286 231" fill="none" xmlns="http://www.w3.org/2000/svg">
<circle cx="131.676" cy="125.211" r="102.289" fill="url(#paint0_linear_5_173)" stroke="black"/>
<path d="M113.113 13.6764L122.318 9.22736H132.904H144.41L150.393 17.9721L159.905 31.9331L167.423 44.5133L173.406 55.5593L175.4 75.8103L170.644 87.3166V96.0614H175.4L179.696 101.124H184.452L197.185 115.085V119.381H202.402L206.697 136.103L208.385 154.053L211.76 163.872V173.384V179.213L206.697 196.243L200.254 201.766L49.2915 199.464V183.663L46.9902 160.65L49.2915 154.667L52.5132 149.144V136.103L55.2747 130.887L57.7294 123.063L62.4853 115.085L66.0139 107.875L74.7587 101.124L88.2594 96.0614L85.8047 80.2594V72.2817L88.2594 67.5258V62.7699L90.5607 55.5593L97.7713 48.5021L104.061 40.2176L106.363 31.9331L109.124 20.7336L113.113 13.6764Z" fill="#0B0B0B"/>
<path d="M49.2965 204.377C49.2965 200.519 49.4189 196.949 50.0358 193.248C50.2963 191.684 50.6839 189.843 50.2955 188.193C49.751 185.878 50.4166 183.474 49.9958 181.16C49.2344 176.972 48.9368 172.487 48.9368 168.212C48.9368 165.757 48.2176 163.371 48.2176 160.86C48.2176 160.394 48.3576 154.799 49.6362 155.865C51.4236 157.354 51.505 160.151 53.0927 161.739C54.0518 162.698 56.2609 163.872 55.0508 161.579C54.6758 160.868 54.1264 160.379 53.6322 159.761C52.9909 158.959 53.1308 157.9 52.5333 157.123C51.9468 156.361 51.5407 154.984 51.2745 154.026C50.6374 151.733 51.5351 149.428 52.2536 147.273C52.8844 145.381 52.7648 143.41 53.2526 141.459C53.7836 139.335 53.9719 137.661 53.9719 135.405C53.9719 133.477 54.3529 132.198 56.5094 132.468C58.2837 132.69 60.424 134.491 61.6842 135.685C62.4849 136.443 63.3544 136.968 64.2217 137.643C65.0695 138.302 65.2766 138.647 64.3216 137.762C62.2118 135.809 59.9453 135.168 57.7681 133.387C56.1658 132.076 56.4894 131.048 56.4894 128.931C56.4894 127.466 56.511 125.778 57.3685 124.675C57.8163 124.1 57.6573 122.852 58.2876 122.458C58.6807 122.212 59.4823 120.401 59.6463 119.86C60.1558 118.179 61.2755 116.096 62.4035 114.645C62.564 114.439 63.5686 113.187 63.6823 113.187C63.9898 113.187 63.6429 113.822 63.7622 114.106C63.8387 114.288 64.1283 115.325 64.3216 114.745C64.8453 113.174 63.8162 110.74 65.3206 109.45C66.128 108.759 66.6143 107.766 67.3586 106.993C68.2865 106.029 69.5474 105.266 70.3357 104.236C71.9036 102.185 74.0358 100.816 76.2698 99.6402C77.0875 99.2099 77.8147 98.5701 78.6475 98.1217C79.3036 97.7684 79.975 98.0152 80.6055 97.5423C81.1159 97.1595 81.5505 96.843 82.2039 96.843C84.1986 96.843 85.8894 95.267 87.7784 95.0447C88.2799 94.9857 87.0591 87.8006 87.0591 86.4932C87.0591 84.1334 85.9802 81.7717 85.9802 79.4002C85.9802 76.9856 86.0341 74.9362 86.8593 72.6669C87.3053 71.4406 87.6134 70.4207 88.0981 69.3302C88.4223 68.6007 89.5035 67.3466 89.5767 66.7128C89.7003 65.6416 90.2959 64.6586 90.2959 63.5759C90.2959 62.3949 90.1922 61.1548 90.3159 59.9794C90.8396 55.0043 94.3615 52.0977 97.6687 48.7905C100.072 46.3867 102.717 44.0237 104.322 40.8983C105.283 39.0268 106.84 36.5406 106.84 34.4247C106.84 33.2757 107.559 32.4649 107.559 31.3078C107.559 30.3487 107.559 29.3897 107.559 28.4306C107.559 27.2443 107.967 25.0762 108.458 23.995C109.842 20.9499 110.404 16.9727 112.754 14.4844C113.864 13.3092 115.175 12.563 116.37 11.6073C117.38 10.7995 118.372 9.88763 119.787 9.80904C120.353 9.7776 121.565 9.34899 121.925 8.92991C122.383 8.39504 123.978 8.81224 124.642 8.71013C127.421 8.28262 129.868 7.93336 132.734 8.01082C135.475 8.0849 138.065 9.42034 140.646 9.78906C142.238 10.0164 144.453 10.3558 145.681 11.4474C146.567 12.2346 147.495 14.0326 148.398 14.5643C149.55 15.2416 149.989 17.3138 150.936 18.2607C151.681 19.0062 151.846 19.8462 152.514 20.5984C152.814 20.9349 153.579 22.316 153.593 22.6763C153.652 24.1476 155.691 25.6239 156.67 26.6923C157.389 27.4765 158.13 27.8246 158.548 28.8702C158.855 29.6369 158.934 30.7422 159.507 31.3877C160.666 32.6906 160.916 34.329 162.045 35.6835C162.924 36.7379 162.935 38.4769 163.863 39.4597C164.96 40.621 166.085 43.5495 167.46 44.3349C168.755 45.0754 169.771 47.0133 170.656 48.1511C171.047 48.6528 171.319 49.8091 171.655 50.4488C172.09 51.2741 172.656 52.1434 172.934 53.0463C174.053 56.6823 174.812 60.527 174.812 64.475C174.812 67.7154 175.172 70.7387 175.172 73.9856C175.172 77.2506 173.721 79.996 173.014 83.1765C172.761 84.3165 172.374 85.2556 172.015 86.3334C171.766 87.0794 171.244 88.6196 171.216 89.3704C171.16 90.8692 170.856 92.367 170.856 93.9658C170.856 95.2407 174.165 96.1237 175.352 96.1237C176.821 96.1237 178.783 97.2694 179.648 98.3615C179.927 98.7138 181.246 99.4144 181.246 99.8999C181.246 100.667 179.288 101.394 178.748 101.698C177.942 102.152 176.952 102.475 176.531 103.317C176.418 103.542 175.437 105.674 175.612 105.674C175.942 105.674 176.841 104.746 177.17 104.575C178.332 103.971 179.396 103.203 180.567 102.617C181.911 101.945 183.59 101.146 185.062 100.819C186.073 100.595 187.969 104.573 188.119 105.474C188.318 106.668 191.458 109.293 192.435 110.13C193.826 111.322 195.516 112.212 196.91 113.407C197.477 113.893 198.359 114.922 198.629 115.624C199.281 117.32 197.554 116.653 197.63 117.263C197.655 117.462 200.089 117.328 200.367 117.363C202.204 117.592 202.252 118.423 203.064 119.7C204.095 121.32 204.373 123.499 204.943 125.335C205.673 127.688 205.389 130.307 206.281 132.628C207.111 134.785 207.093 137.101 207.82 139.201C209.413 143.805 207.577 149.177 209.698 153.667C211.929 158.391 213.294 163.271 213.294 168.452C213.294 170.9 212.922 173.088 210.057 173.088C208.979 173.088 207.9 173.088 206.821 173.088C204.981 173.088 207.16 173.807 207.88 173.807C211.139 173.807 214.134 174.999 212.415 178.682C211.905 179.776 211.842 181.325 211.416 182.518C211.177 183.189 210.852 184.319 210.777 184.956C210.602 186.441 210.028 187.845 209.518 189.272C208.8 191.281 208.099 193.429 207.54 195.386C207.101 196.921 206.073 197.51 205.022 198.622C203.963 199.744 201.805 201.726 200.327 202.219C198.345 202.879 196.05 202.578 193.953 202.578C183.103 202.578 172.445 203.298 161.585 203.298C146.7 203.298 131.815 203.298 116.93 203.298C110.061 203.298 103.243 202.938 96.4099 202.938C92.5573 202.938 89.6078 201.318 85.9802 200.8C84.5784 200.6 82.7132 200.204 81.4847 199.521C80.7271 199.101 80.0366 198.622 79.147 198.622C78.0596 198.622 78.3003 198.158 77.4287 197.823C73.7214 196.397 72.4013 191.511 70.5155 188.472C70.1893 187.947 67.3018 183.877 68.8971 183.877C69.7145 183.877 74.3551 183.432 74.7513 182.798C75.3533 181.835 76.9891 180.972 76.9891 179.741C76.9891 177.368 77.0191 175.965 74.1919 175.965C73.6561 175.965 71.739 176.469 73.053 176.304C74.7256 176.095 75.9266 174.824 77.4287 174.246C78.3151 173.905 77.9763 173.579 78.2878 173.267C78.9206 172.635 80.0487 172.582 80.7654 172.009C82.3612 170.732 79.9035 167.708 78.7873 167.133C75.0442 165.205 80.2634 167.239 80.9452 165.535C81.3139 164.613 81.4855 163.996 81.7444 163.018C82.0808 161.747 83.5818 160.658 84.2619 159.541C85.8764 156.889 87.2077 154.378 87.7585 151.349C87.987 150.092 88.8916 146.701 87.4188 145.835C85.2087 144.534 83.5988 141.981 81.2849 140.939C79.9118 140.321 78.0064 139.711 77.1489 138.282C76.8027 137.705 79.6891 138.245 80.0261 138.402C80.9075 138.813 82.8785 140.253 83.8223 140.2C84.5329 140.161 84.182 135.644 84.182 135.045C84.182 133.577 83.8589 132.486 83.4827 131.169C83.2573 130.38 82.4421 130.668 81.8643 130.09C81.2779 129.504 80.7311 128.965 81.0251 130.37C81.4869 132.576 83.1778 134.406 84.2619 136.324C85.9694 139.345 86.3835 142.077 89.0572 144.496C90.8071 146.079 92.7274 147.331 94.8914 148.272C95.9428 148.729 97.7137 149.22 98.5678 149.871C102.873 153.15 100.191 147.309 99.1272 145.375C97.9682 143.268 96.4135 141.941 94.8914 140.08C94.1241 139.142 94.7341 138.562 95.6906 138.562C97.1391 138.562 98.1877 140.807 99.0073 141.798C101.555 144.88 103.622 146.751 107.159 148.792C108.201 149.393 109.621 150.745 110.876 150.79C112.239 150.838 113.339 151.486 114.472 152.228C115.613 152.976 116.974 154.237 118.388 154.366C121.438 154.643 122.034 153.511 123.423 151.129C124.892 148.612 127.167 146.928 129.697 145.555C130.103 145.335 131.044 143.987 130.496 144.556C128.578 146.548 126.662 149.029 125.062 151.269C124.511 152.04 124.103 152.53 124.103 153.507C124.103 154.184 123.757 155.487 124.702 155.465C126.297 155.428 127.479 154.596 128.778 153.946C131.724 152.474 134.291 150.627 137.05 148.971C137.501 148.701 137.214 148.298 137.489 147.992C137.73 147.725 138.162 147.963 138.408 147.553C139.092 146.413 137.786 150.19 137.07 151.309C136.386 152.378 134.591 154.431 135.052 155.785C135.786 157.945 138.332 157.324 140.207 157.263C143.632 157.153 146.884 155.105 150.377 155.105C151.775 155.105 153.345 154.66 154.672 154.226C156.263 153.706 157.874 153.686 159.348 152.868C161.129 151.878 162.824 149.774 164.183 148.292C165.935 146.38 167.116 145.121 167.899 142.598C168.291 141.337 168.844 140.202 169.238 138.941C169.516 138.05 169.425 138.561 169.198 139.141C168.68 140.464 168.043 141.802 167.42 143.077C167.136 143.657 164.757 148.966 165.542 148.472C167.183 147.438 169.139 145.494 170.217 143.876C171.683 141.678 173.547 140.342 175.452 138.642C176.809 137.43 178.526 136.678 180.047 135.705C183.134 133.729 181.016 135.742 179.608 137.183C175.876 141.001 171.365 144.175 168.219 148.552C167.954 148.92 166.739 151.149 166.9 151.149C169.017 151.149 169.058 152.951 169.058 154.726C169.058 156.878 167.112 158.462 170.217 158.342C171.52 158.292 169.936 159.559 169.438 160.68C168.541 162.697 168.818 162.658 170.716 162.658C173.215 162.658 176.784 162.02 179.208 162.738C181.457 163.404 184.665 163.737 187.02 163.737C187.184 163.737 189.178 163.675 188.399 164.376C187.639 165.06 183.917 164.456 182.964 164.456C181.202 164.456 179.6 165.175 177.769 165.175C176.209 165.175 176.209 165.895 177.769 165.895C179.026 165.895 180.208 166.254 181.446 166.254C183.211 166.254 180.112 166.663 179.488 166.574C177.044 166.225 174.946 165.895 172.375 165.895C171.847 165.895 167.096 165.887 167.42 166.254C167.973 166.881 171.971 169.887 169.797 167.713C167.745 165.661 165.481 163.902 162.664 163.097C161.196 162.678 159.246 163.018 157.729 163.018C156.33 163.018 152.89 163.767 151.775 162.838C151.277 162.423 149.925 162.366 149.278 162.298C148.356 162.201 147.092 161.238 146.121 160.94C144.262 160.368 143.095 159.421 141.006 159.421C139.166 159.421 137.096 159.819 135.631 161.039C134.521 161.964 134.084 163.242 134.812 164.616C135.542 165.994 135.647 164.331 135.411 163.557C135.076 162.456 134.413 160.647 133.273 160.14C132.231 159.677 131.383 159.421 130.216 159.421C128.741 159.421 127.878 158.818 126.54 158.422C124.091 157.696 121.332 156.824 118.728 156.564C115.785 156.27 112.672 156.544 109.717 156.544C108.571 156.544 107.673 156.657 106.68 156.024C106.013 155.6 105.188 156.026 104.502 155.645C103.7 155.199 100.726 155.083 100.726 156.184C100.726 158.086 100.554 159.454 100.086 161.219C98.9136 165.649 95.7498 169.107 94.1721 173.367C93.427 175.379 92.9972 176.903 92.7935 179.042C92.6771 180.263 91.667 184.091 92.6137 185.156C93.5995 186.265 95.5005 186.754 96.9494 186.754C99.5137 186.754 100.642 183.554 101.805 181.639C102.192 181 103.015 179.866 103.243 179.182C103.655 177.946 104.78 177.819 105.601 177.044C106.341 176.345 107.106 175.743 108.118 175.405C108.767 175.189 110.451 174.735 110.975 174.326C112.084 173.464 114.087 173.725 115.471 173.807C116.903 173.891 118.02 177.786 118.548 178.842C119.631 181.009 121.549 182.019 123.463 183.317C124.906 184.296 126.608 185.165 128.218 185.855C129.485 186.398 130.447 187.682 131.675 188.372C136.541 191.11 142.465 191.305 147.919 191.429C149.222 191.459 150.998 191.75 152.155 192.329C153.418 192.96 153.795 194.23 155.232 194.846C157.014 195.61 158.578 196.379 160.506 196.824C162.002 197.169 163.598 197.369 164.962 198.103C166.852 199.121 168.787 199.839 170.057 201.499C170.403 201.952 171.326 203.965 170.796 202.199C169.812 198.916 165.089 198.281 162.465 197.204C158.539 195.593 155.003 195.386 150.796 195.386C149.183 195.386 148.507 195.38 148.978 197.344C149.289 198.638 151.651 199.099 152.714 198.422C153.822 197.718 153.593 197.581 153.593 198.982C153.593 199.317 153.524 199.676 153.953 199.701C154.259 199.719 155.178 199.701 154.872 199.701C153.291 199.701 152.167 198.389 150.396 198.642C149.613 198.754 152.888 201.14 153.793 201.14C154.865 201.14 155.556 200.775 156.55 200.5C157.983 200.105 162.396 200.531 160.986 200.061C160.384 199.86 159.638 199.774 159.008 199.721C157.794 199.62 157.061 198.997 155.931 198.662C153.946 198.074 151.949 197.32 149.917 196.904C147.458 196.401 145.162 195.386 142.604 195.386C142.187 195.386 140.323 195.087 140.286 195.745C140.238 196.619 139.944 198.77 140.726 199.342C142.388 200.556 146.758 200.148 145.102 197.204C143.678 194.673 137.917 193.947 135.251 193.947C134.179 193.947 133.587 193.774 133.433 195.006C133.333 195.811 132.658 197.184 133.273 197.923C135.288 200.341 136.74 196.969 136.69 195.026C136.598 191.44 133.618 191.789 130.936 191.789C127.773 191.789 124.768 192.1 124.482 196.105C124.447 196.594 123.687 199.572 124.462 199.701C126.417 200.027 126.004 197.142 127.139 196.544C127.795 196.2 129.138 196.968 129.138 195.905C129.138 194.578 128.263 193.742 126.8 193.967C124.869 194.264 125.076 199.342 126.62 199.342C128.664 199.342 127.467 193.103 127 192.169C125.801 189.771 122.071 190.184 120.146 188.832C118.038 187.35 116.145 185.067 115.451 182.638C115.151 181.588 114.261 180.31 113.593 179.641C112.681 178.729 110.823 180.281 110.076 180.72C108.711 181.523 106.933 182.825 105.741 184.077C102.908 187.051 100.365 190.086 98.5678 193.787C97.9923 194.972 96.7572 198.151 97.5288 199.501C97.9439 200.228 102.055 199.701 102.764 199.701C106.355 199.701 109.807 198.982 113.393 198.982C114.095 198.982 120.305 200.571 120.486 199.302C121.363 193.16 117.303 190.154 112.234 187.753C109.647 186.527 109.118 187.353 107.179 189.292C105.527 190.944 103.625 192.332 101.964 193.947C100.393 195.475 101.342 195.745 103.123 195.745C104.985 195.745 106.866 195.826 108.718 195.585C110.092 195.407 113.332 195.297 114.432 194.307C114.946 193.844 110.344 191.577 109.877 191.429C105.597 190.082 101.347 191.248 97.5088 193.407C95.4277 194.578 92.9706 194.307 90.6556 194.307C89.2116 194.307 87.8348 194.253 86.5197 193.567C85.1394 192.847 82.8296 192.254 81.7044 191.27C80.8225 190.498 78.4447 188.719 77.3487 188.912C76.4981 189.062 77.9356 191.581 78.4676 191.809C81.2928 193.02 83.8879 194.951 86.6995 196.245C87.0338 196.398 91.2318 198.352 91.6546 197.823C92.3222 196.989 87.1668 192.776 86.6995 192.309C85.9005 191.51 77.9455 184.792 80.7853 183.957C81.7987 183.659 83.2944 183.069 84.182 183.957C85.8829 185.658 85.622 188.841 87.2789 190.37C88.4233 191.427 90.798 191.831 92.294 191.789C95.1028 191.711 90.863 186.994 90.2959 186.474C89.1402 185.415 87.8492 184.361 87.1191 182.938C86.2885 181.318 86.1514 179.455 85.2809 177.823C84.9158 177.138 83.5435 175.878 82.7234 176.944C82.3991 177.365 81.6732 178.872 82.9033 178.083C84.9733 176.754 86.4636 174.414 87.219 172.128C88.0617 169.579 88.802 166.888 89.3369 164.256C89.5086 163.412 90.07 160.774 89.4967 159.941C89.1125 159.382 87.4441 163.204 87.4388 163.217C86.6114 165.231 85.9802 167.089 85.9802 169.271C85.9802 172.015 85.9802 174.759 85.9802 177.503C85.9802 177.966 85.6509 180.151 86.0601 180.56C86.8461 181.346 88.3702 178.507 88.4977 178.242C90.5308 174.023 90.9513 169.57 92.294 165.175C93.1595 162.343 92.9796 159.605 93.1931 156.724C93.2577 155.851 94.7511 152.428 93.4928 151.889C88.1696 149.607 92.1642 156.15 93.4129 158.002C93.8321 158.625 95.8477 162.118 96.7695 160.22C98.8324 155.973 97.9088 148.23 94.6916 144.756C93.2372 143.185 96.942 145.503 97.309 145.775C99.0972 147.099 100.539 148.769 102.304 150.07C103.895 151.243 104.793 152.564 106.76 153.307C108.213 153.856 109.79 153.637 111.315 153.667C114.142 153.721 117.025 154.386 119.807 154.386C121.61 154.386 123.474 154.595 125.261 154.826C127.187 155.074 130.738 155.852 132.574 155.025C133.156 154.763 132.271 152.979 133.633 154.026C135.29 155.301 137.255 155.004 139.048 155.665C142.969 157.109 147.649 156.747 151.715 157.543C155.147 158.214 158.436 158.463 161.945 158.342C163.124 158.301 163.782 157.275 164.762 156.724C165.085 156.542 167.222 154.786 166.84 154.786C159.666 154.786 152.348 155.105 145.122 155.105C142.125 155.105 139.128 155.105 136.131 155.105C133.853 155.105 130.998 155.542 128.778 154.926C121.901 153.015 113.871 154.026 106.84 154.026C104.275 154.026 101.711 154.026 99.1472 154.026C96.577 154.026 94.8565 155.6 92.8534 157.063C90.8712 158.512 89.9187 160.413 88.5776 162.378C86.0031 166.15 84.2243 171.024 82.5037 175.205C79.936 181.446 75.4452 189.696 77.0291 196.824C77.3228 198.146 78.9433 200.362 79.8663 201.34C80.0259 201.509 81.9822 203.13 81.4647 203.278C80.0642 203.678 77.4479 202.558 75.9901 202.299C72.6816 201.71 69.0261 201.534 65.6803 201.499C61.5386 201.457 57.3946 201.499 53.2526 201.499C51.1343 201.499 51.2952 201.878 50.0957 203.378C49.3519 204.307 52.2845 204.017 52.5533 204.017C55.0654 204.017 57.5585 203.657 60.0858 203.657C66.753 203.657 73.3917 203.298 80.0661 203.298C85.9935 203.298 91.921 203.298 97.8485 203.298C99.3554 203.298 106.088 204.081 106.84 202.578" stroke="black" stroke-width="15" stroke-linecap="round"/>
<path d="M76.2698 185.675C75.6777 185.675 73.4739 185.978 74.3517 186.474C79.4627 189.363 87.0468 188.193 92.6536 188.193C95.5241 188.193 98.3946 188.193 101.265 188.193C103.406 188.193 106.092 188.659 108.038 187.553C108.726 187.163 111.776 184.498 111.515 184.237" stroke="black" stroke-width="6" stroke-linecap="round"/>
<path d="M159.707 160.5C161.403 160.5 162.576 160.719 164.203 161.219C165.794 161.709 167.26 163.717 167.26 161.219" stroke="black" stroke-width="6" stroke-linecap="round"/>
<path d="M77.8399 122.257C77.905 122.713 78.1124 123.106 78.1903 123.553C78.2308 123.787 78.3512 124.013 78.4122 124.244C78.5298 124.688 78.6123 125.115 78.6522 125.574C78.6919 126.03 78.6951 126.491 78.7327 126.947C78.7794 127.513 78.7275 128.078 78.7275 128.643C78.7275 128.832 78.678 129.014 78.6626 129.202C78.6417 129.459 78.6574 129.721 78.6574 129.978C78.6574 130.578 78.6176 131.264 78.891 131.811" stroke="black" stroke-width="6" stroke-linecap="round"/>
<path d="M77.8399 122.35C77.8753 122.492 78.04 122.664 78.1176 122.786C78.3811 123.201 78.6469 123.616 78.9559 123.998C79.2982 124.422 79.6542 124.837 79.9837 125.27C80.2983 125.684 80.6075 126.097 80.9596 126.48C81.171 126.71 81.2888 126.953 81.4372 127.222C81.5478 127.422 81.6598 127.577 81.8058 127.752C81.946 127.919 82.0731 128.074 82.1847 128.26" stroke="black" stroke-width="6" stroke-linecap="round"/>
<path d="M80.97 126.508C81.1244 126.735 81.4126 126.924 81.6163 127.104C82.0013 127.445 82.4636 127.704 82.8985 127.975C83.2444 128.19 83.5641 128.45 83.8848 128.701C83.9342 128.74 84.0768 128.821 84.0768 128.891" stroke="black" stroke-width="6" stroke-linecap="round"/>
<path d="M64.2914 140.547C64.2651 140.551 64.4276 140.646 64.4497 140.659C64.5844 140.735 64.7536 140.792 64.8988 140.846C65.1484 140.939 65.4145 141.002 65.6748 141.056C66.1398 141.153 66.6225 141.209 67.0842 141.323C67.3074 141.379 67.5261 141.452 67.7486 141.51C67.9797 141.571 68.2229 141.627 68.4494 141.702C68.6978 141.784 68.955 141.844 69.1969 141.944C69.4486 142.048 69.7099 142.094 69.9626 142.188C70.2452 142.292 70.5204 142.414 70.8087 142.504C71.1727 142.618 71.543 142.694 71.891 142.855C72.539 143.154 73.1441 143.546 73.7338 143.945C73.8819 144.045 74.0135 144.166 74.1595 144.269C74.2751 144.351 74.4023 144.413 74.5177 144.495C74.7526 144.662 74.9932 144.818 75.2107 145.008C75.3746 145.151 75.5118 145.302 75.6558 145.464C75.7662 145.589 75.8689 145.749 76.0049 145.847C76.0456 145.877 76.2692 146.05 76.2489 145.938C76.2127 145.739 75.9994 145.565 75.8517 145.444C75.6123 145.247 75.2983 145.15 75.0329 144.995C74.6901 144.794 74.3292 144.626 73.9869 144.425C73.63 144.215 73.288 143.981 72.937 143.762C71.8833 143.103 70.7899 142.424 69.9807 141.46C69.7872 141.229 69.5875 141 69.3838 140.778C69.2867 140.673 69.2061 140.551 69.0879 140.467C68.7311 140.212 68.3113 140.031 67.9212 139.835C67.6015 139.674 67.1409 139.531 66.931 139.216" stroke="black" stroke-width="6" stroke-linecap="round"/>
<path d="M67.6318 138.819C67.6461 139.039 67.791 139.272 67.9173 139.449C68.1216 139.737 68.4383 139.968 68.7063 140.192C69.4644 140.824 70.1887 141.515 71.0319 142.037C71.6241 142.404 72.2158 142.771 72.8072 143.14C73.0572 143.296 73.3032 143.464 73.5366 143.644C73.5445 143.65 73.6333 143.714 73.5664 143.681C73.4112 143.607 73.2825 143.472 73.1472 143.369C72.5261 142.893 71.8918 142.448 71.2992 141.933C70.765 141.47 70.2231 140.955 69.7861 140.397C69.455 139.974 69.1756 139.495 68.7842 139.122C68.4673 138.82 68.1179 138.55 67.7953 138.253C67.3425 137.836 66.9189 137.349 66.4223 136.984C66.2973 136.892 66.1492 136.746 65.9966 136.711C65.9104 136.691 65.8156 136.622 65.7397 136.576" stroke="black" stroke-width="6" stroke-linecap="round"/>
<path d="M65.7631 136.529C65.8245 136.537 65.832 136.585 65.8669 136.628C65.9401 136.72 66.0324 136.802 66.1277 136.869C66.4074 137.067 66.6857 137.271 66.931 137.511C67.1678 137.742 67.4326 137.945 67.6669 138.179C67.8643 138.376 68.0366 138.605 68.2158 138.819C68.3057 138.926 68.4215 138.989 68.5195 139.086C68.6601 139.225 68.7895 139.378 68.9283 139.519C69.2544 139.852 69.5887 140.173 69.921 140.501C70.2614 140.836 70.6221 141.145 70.993 141.445C71.335 141.722 71.6963 141.987 72.0234 142.281C72.4464 142.662 72.8832 143.028 73.3069 143.409C73.5843 143.659 73.8381 143.935 74.1128 144.186C74.5086 144.549 74.8358 144.982 75.234 145.341C75.4102 145.5 75.5857 145.655 75.7505 145.825C75.8055 145.882 75.874 145.925 75.9478 145.954C75.9893 145.97 76.0342 145.958 76.0698 145.985C76.1895 146.075 76.3303 146.139 76.4383 146.247" stroke="black" stroke-width="6" stroke-linecap="round"/>
<path d="M73.2848 134.731C73.5248 135.771 73.6754 136.895 74.1984 137.847C74.4611 138.325 74.8722 138.733 75.2924 139.073C75.5805 139.306 75.8638 139.531 76.1398 139.776C76.2542 139.878 76.5111 139.992 76.5785 140.127" stroke="black" stroke-width="6" stroke-linecap="round"/>
<path d="M73.4716 134.567C73.6021 134.567 73.7346 134.7 73.8376 134.77C74.4308 135.174 75.1185 135.457 75.7816 135.725C76.2473 135.913 76.7203 136.057 77.1936 136.221C77.3269 136.267 77.4505 136.34 77.5829 136.389" stroke="black" stroke-width="6" stroke-linecap="round"/>
<path d="M57.1028 160.728C57.7711 161.222 58.4393 161.714 59.1173 162.194C59.2496 162.288 59.337 162.355 59.4402 162.472C59.5657 162.614 59.6981 162.76 59.847 162.878C60.1235 163.098 60.3801 163.228 60.5605 163.547C60.8128 163.993 61.2976 164.363 61.4612 164.854" stroke="black" stroke-width="6" stroke-linecap="round"/>
<path d="M55.4176 164.854C55.4176 164.989 55.4105 165.126 55.4176 165.261C55.4266 165.432 55.8996 165.408 56.0245 165.422C57.0573 165.539 58.0835 165.354 59.1044 165.267C59.4914 165.234 59.878 165.203 60.2667 165.203C60.4467 165.203 60.6357 165.259 60.5831 165.022C60.4872 164.59 59.6567 164.223 59.3111 164.044C58.9037 163.833 58.4909 163.692 58.0326 163.692" stroke="black" stroke-width="6" stroke-linecap="round"/>
<path d="M68.5662 162.248C69.7227 162.797 70.9268 163.251 72.1038 163.754C72.6558 163.989 73.2104 164.207 73.7092 164.543C74.1156 164.816 74.5113 165.106 74.9148 165.384C75.3233 165.665 75.7677 165.953 75.9945 166.406" stroke="black" stroke-width="6" stroke-linecap="round"/>
<path d="M70.0612 162.085C69.9935 162.093 70.1536 162.204 70.1572 162.207C70.484 162.425 70.8957 162.557 71.2681 162.67C72.0245 162.9 72.8053 163.047 73.5729 163.234C74.5062 163.463 75.4224 163.747 76.3501 163.995C77.3942 164.274 78.4638 164.387 79.5425 164.304C79.7425 164.288 79.9489 164.296 80.1473 164.269C80.1894 164.263 80.2506 164.271 80.2693 164.234" stroke="black" stroke-width="6" stroke-linecap="round"/>
<path d="M73.4483 164.748C73.5198 165.01 73.799 165.145 73.996 165.306C74.4134 165.647 74.8444 166.018 75.3275 166.262C75.494 166.346 75.6717 166.43 75.8504 166.485C75.9105 166.504 75.973 166.515 76.0282 166.546C76.0856 166.579 76.0995 166.649 76.158 166.663" stroke="black" stroke-width="6" stroke-linecap="round"/>
<path d="M68.1441 161.774C69.8265 162.117 71.5068 162.527 73.1998 162.817C73.5209 162.872 73.8357 162.881 74.1425 162.995C74.3385 163.067 74.624 163.082 74.7688 163.227" stroke="black" stroke-width="6" stroke-linecap="round"/>
<path d="M73.8391 162.646C74.8954 162.998 76.0415 163.169 77.1515 163.169C77.6513 163.169 77.7982 163.05 78.049 162.588C78.4621 161.827 78.9073 161.078 79.3274 160.321C79.6314 159.774 80.1107 159.103 80.6963 158.869" stroke="black" stroke-width="6" stroke-linecap="round"/>
<path d="M77.1438 168.227C76.9902 168.586 76.7027 169.756 76.2782 169.969C76.1467 170.034 76.1005 169.994 75.9879 170.106C75.8214 170.273 75.4356 170.4 75.2139 170.478C74.6209 170.685 74.0994 170.962 73.4979 171.14C72.7154 171.372 71.901 171.353 71.1861 171.71" stroke="black" stroke-width="6" stroke-linecap="round"/>
<path d="M65.595 177.576C65.9873 177.576 66.4497 177.076 66.8069 176.914C67.6958 176.512 68.6258 176.16 69.4853 175.702C70.6677 175.073 72.2176 174.552 73.5692 174.552" stroke="black" stroke-width="6" stroke-linecap="round"/>
<path d="M67.2448 176.935C68.1979 176.935 69.1473 176.843 70.1066 176.843C71.3045 176.843 72.464 177.118 73.6609 177.118" stroke="black" stroke-width="6" stroke-linecap="round"/>
<path d="M65.5033 185.367C65.3132 185.367 64.4725 185.819 64.4085 185.403C64.3103 184.765 64.6813 184.154 65.045 183.666C65.7133 182.771 66.2852 181.946 67.143 181.207C68.1485 180.341 69.1683 179.487 70.3612 178.88C71.1208 178.493 71.7802 178.196 72.4234 177.622C72.9568 177.146 73.2 176.625 73.5692 176.039C73.7888 175.69 73.4842 176.902 73.3858 177.067C73.0799 177.581 72.6901 178.033 72.3369 178.513C72.1009 178.834 71.5822 179.296 71.4712 179.684C71.3979 179.941 71.0072 180.479 71.6444 180.194C71.995 180.037 72.2291 179.829 72.6169 179.914C72.7503 179.943 73.5337 179.877 73.4724 180.092C73.4174 180.284 71.7281 180.451 71.461 180.489C71.1027 180.54 70.765 180.532 70.4121 180.596C70.2242 180.63 70.0997 180.693 69.9029 180.693" stroke="black" stroke-width="6" stroke-linecap="round"/>
<path d="M107.436 173.04C107.523 172.795 107.623 172.573 107.728 172.338C107.789 172.203 107.844 172.07 107.949 171.964C108.014 171.9 108.066 171.835 108.132 171.774C108.239 171.675 108.363 171.627 108.482 171.545C108.714 171.386 108.926 171.196 109.154 171.031C109.65 170.674 110.299 170.522 110.892 170.403C111.288 170.324 111.702 170.363 112.103 170.336C112.481 170.31 112.856 170.307 113.235 170.307C113.694 170.307 114.143 170.341 114.597 170.412C115.12 170.494 115.539 170.696 116.01 170.926C116.536 171.183 117.051 171.427 117.522 171.779C117.792 171.98 118.058 172.202 118.298 172.437C118.567 172.699 118.756 173.004 118.952 173.321C119.122 173.593 119.229 173.87 119.311 174.18C119.352 174.338 119.387 174.568 119.329 174.727C119.244 174.96 119.028 175.184 118.873 175.371C118.777 175.488 118.684 175.622 118.579 175.727" stroke="black" stroke-width="6" stroke-linecap="round"/>
<path d="M119.887 173.858C120.226 174.366 120.541 174.884 120.951 175.337C121.142 175.548 121.311 175.788 121.462 176.029C121.714 176.43 122.061 176.756 122.316 177.152C122.881 178.027 123.771 178.659 124.546 179.334C125.02 179.748 125.514 180.141 125.973 180.572C126.4 180.972 126.813 181.409 127.276 181.766C127.699 182.093 128.162 182.371 128.6 182.675C128.812 182.822 129.073 182.869 129.277 183.015" stroke="black" stroke-width="6" stroke-linecap="round"/>
<path d="M129.162 183.218C129.686 183.289 130.231 183.701 130.698 183.944C130.875 184.036 131.037 184.12 131.199 184.231C131.49 184.432 131.837 184.547 132.125 184.741C132.438 184.953 132.809 185.105 133.146 185.281C133.627 185.531 134.136 185.814 134.657 185.971C135.429 186.205 136.131 186.529 136.936 186.678C137.701 186.82 138.458 187.022 139.218 187.198C140.111 187.405 141.01 187.333 141.921 187.344C142.335 187.348 142.737 187.456 143.154 187.46C143.604 187.464 144.054 187.46 144.503 187.46" stroke="black" stroke-width="6" stroke-linecap="round"/>
<path d="M170.537 169.91C170.65 170.011 170.8 170.069 170.951 170.081C171.296 170.108 171.604 170.218 171.935 170.32C172.731 170.565 173.635 170.569 174.36 170.988C175.231 171.492 176.078 172.396 176.652 173.222C176.759 173.376 176.718 173.525 176.788 173.684C176.806 173.727 176.882 173.815 176.794 173.694C176.607 173.433 176.368 173.218 176.126 173.009C175.072 172.101 173.968 171.377 173.411 170.052C173.345 169.897 173.023 169.445 173.359 169.445C173.608 169.445 173.591 169.051 173.85 169.339C174.038 169.548 174.123 169.846 174.27 170.084C174.473 170.415 174.66 170.747 174.851 171.085C175.143 171.604 175.506 172.101 175.855 172.583C176.102 172.926 176.399 173.31 176.684 173.616C176.838 173.781 177.114 174.013 177.214 174.213C177.238 174.261 177.388 174.469 177.343 174.391C177.081 173.942 176.444 173.594 176 173.364C174.968 172.83 174.065 172.249 173.127 171.573C172.614 171.203 172.063 170.906 171.48 170.665C171.178 170.541 170.921 170.371 170.596 170.317" stroke="black" stroke-width="6" stroke-linecap="round"/>
<path d="M177.802 169.096C178.459 169.096 179.114 169.12 179.771 169.142C180.171 169.155 180.601 169.116 180.998 169.18C181.456 169.254 181.866 169.329 182.334 169.329C182.699 169.329 183.075 169.304 183.438 169.342C184.162 169.417 184.911 169.54 185.601 169.768C186.052 169.916 186.544 169.939 187.009 170.026C187.47 170.112 187.937 170.318 188.378 170.478C188.845 170.648 189.257 170.894 189.656 171.188C189.852 171.332 190.058 171.542 190.296 171.608C190.435 171.647 190.522 171.695 190.644 171.757C190.821 171.845 190.221 171.128 190.186 171.092C188.925 169.769 187.421 168.818 185.879 167.876C185.487 167.636 184.975 167.121 184.484 167.121" stroke="black" stroke-width="6" stroke-linecap="round"/>
<path d="M187.158 165.9C187.515 165.75 187.967 165.854 188.349 165.752C189.029 165.569 189.706 165.61 190.409 165.61C191.478 165.61 192.487 165.277 193.547 165.206C193.774 165.191 193.869 165.174 194.015 165.028C194.203 164.84 194.65 164.854 194.886 164.854C195.212 164.854 195.419 164.729 195.7 164.68C195.896 164.645 195.501 164.42 195.487 164.412C195.057 164.159 194.616 163.944 194.176 163.711C192.786 162.975 191.285 162.178 189.685 162.01C189.416 161.982 189.86 162.215 189.915 162.252C190.367 162.56 190.867 162.776 191.367 162.991C191.876 163.21 192.355 163.433 192.827 163.724C193.045 163.859 193.226 163.996 193.256 164.267C193.303 164.688 192.119 164.503 191.865 164.505C190.893 164.513 189.874 164.903 189.004 165.313C188.541 165.53 188.032 165.811 187.61 166.104C187.553 166.143 187.283 166.342 187.274 166.423C187.249 166.631 187.962 166.539 188.087 166.539" stroke="black" stroke-width="6" stroke-linecap="round"/>
<path d="M129.895 141.656C129.899 141.655 129.902 141.655 129.904 141.65C129.905 141.649 129.905 141.647 129.906 141.646C129.955 141.617 130.128 141.533 130.133 141.53C130.393 141.4 130.658 141.277 130.911 141.133C131.003 141.08 131.076 141.016 131.152 140.943C131.402 140.699 131.555 140.377 131.785 140.115C131.982 139.89 132.214 139.688 132.44 139.493C132.551 139.398 132.674 139.32 132.786 139.228C132.868 139.161 132.941 139.083 133.029 139.023C133.113 138.966 133.216 138.957 133.297 138.901C133.388 138.838 133.366 139.247 133.365 139.271C133.349 139.684 133.244 140.088 133.146 140.488C133.099 140.679 133.052 140.87 133.018 141.064C132.98 141.287 132.964 141.512 132.942 141.737C132.883 142.358 132.746 142.971 132.449 143.524" stroke="black" stroke-width="6" stroke-linecap="round"/>
<path d="M125.838 145.148C125.904 145.082 125.974 145.065 126.059 145.029C126.251 144.95 126.401 144.804 126.546 144.661C126.822 144.389 126.982 144.072 127.23 143.785C127.474 143.502 127.724 143.29 128.004 143.048C128.367 142.734 128.704 142.376 129.089 142.09C129.44 141.828 129.779 141.544 130.141 141.296C130.444 141.087 130.777 140.885 131.062 140.653C131.539 140.265 132.068 139.965 132.544 139.585" stroke="black" stroke-width="6" stroke-linecap="round"/>
<path d="M134.349 138.037C134.349 138.642 134.157 139.081 133.831 139.599C133.713 139.788 133.587 139.97 133.444 140.141C133.388 140.21 133.275 140.39 133.186 140.428C133.181 140.43 133.171 140.004 133.172 139.967C133.19 139.529 133.396 139.152 133.5 138.739C133.537 138.591 133.593 138.425 133.667 138.293C133.744 138.157 133.77 137.873 133.841 138.193C133.919 138.543 134.022 138.85 134.017 139.216C134.013 139.553 133.896 139.882 133.811 140.205C133.592 141.031 133.217 141.8 132.875 142.581C132.576 143.264 132.293 143.944 132.085 144.661C131.997 144.966 131.895 145.261 131.77 145.553" stroke="black" stroke-width="6" stroke-linecap="round"/>
<path d="M138.968 144.307C138.973 144.307 138.979 144.31 138.983 144.307C139.048 144.273 139.271 144.13 139.271 144.13C139.62 143.908 140.008 143.704 140.327 143.438C140.436 143.348 140.52 143.209 140.597 143.093C140.645 143.021 140.673 142.932 140.719 142.862C140.733 142.841 140.827 143.137 140.831 143.152C140.913 143.457 140.897 143.817 140.862 144.128C140.821 144.495 140.685 144.832 140.592 145.186C140.562 145.301 140.553 145.435 140.583 145.551" stroke="black" stroke-width="6" stroke-linecap="round"/>
<path d="M138.365 144.08C137.207 145.341 136.056 146.609 134.902 147.874" stroke="black" stroke-width="6" stroke-linecap="round"/>
<path d="M131.67 37.9377C130.007 38.1327 128.22 38.1862 126.578 38.5481C126.414 38.5841 126.282 38.7213 126.144 38.8051C125.779 39.0266 125.175 39.1379 124.762 39.2067C123.797 39.3676 122.626 39.5637 121.726 39.9296C120.896 40.2672 119.986 40.4482 119.124 40.6845C118.267 40.9195 117.157 40.9918 116.353 41.3431C114.898 41.9799 113.492 42.7057 112.081 43.5036C111.432 43.8701 110.736 44.1258 110.201 44.6601C109.36 45.5017 108.406 46.1855 107.559 47.0133C106.392 48.1542 105.082 49.1135 104.202 50.483C103.829 51.0627 103.534 51.5744 103.302 52.2178C103.159 52.6149 102.853 53.0771 102.764 53.4787C102.746 53.5604 102.776 54.0487 102.555 53.9606C102.392 53.8953 103.609 52.5718 103.696 52.4587C104.655 51.2153 105.838 49.9323 107.173 49.0774C108.345 48.3279 109.493 47.3923 110.482 46.403C111.565 45.32 112.766 44.4922 113.952 43.5437C116 41.9056 119.002 40.9921 121.518 40.3633C122.582 40.0972 123.485 39.5596 124.473 39.2067C125.189 38.9513 125.901 38.8122 126.618 38.5883C127.772 38.2277 129.289 38.3714 130.505 38.3714C131.497 38.3714 132.858 38.1326 133.806 38.4036C134.339 38.556 135.072 38.3539 135.541 38.6606C136.174 39.0747 136.976 39.1226 137.629 39.528C138.369 39.9876 139.179 40.0772 140.022 40.1063C140.749 40.1313 141.301 40.621 141.95 40.8371C142.746 41.1026 143.243 41.7337 143.966 42.0499C144.608 42.3307 145.187 42.9173 145.837 43.1341C146.579 43.3814 147.303 43.9804 147.998 44.371C148.765 44.8024 149.321 45.653 150.174 45.9211C150.909 46.152 151.356 46.9547 152.086 47.2222C152.827 47.4939 153.384 48.0702 154.077 48.4269C155.596 49.208 156.777 50.5316 158.125 51.5913C159.434 52.6196 160.261 53.5331 161.089 55.0047C161.322 55.4195 161.198 55.9431 161.523 56.2897C161.81 56.5967 161.94 57.0616 162.093 57.4543C162.372 58.1717 162.598 59.0048 162.784 59.7674C163.005 60.6795 163.425 61.4173 163.587 62.3696C163.768 63.4342 164.053 64.5432 164.053 65.6304C164.053 67.3172 164.164 69.085 164.35 70.7545C164.417 71.3636 164.342 74.0491 165.362 73.2844C166.221 72.6399 166.169 71.855 166.446 70.9071C166.573 70.4716 166.736 70.0396 166.872 69.606C166.955 69.3397 166.825 68.8253 166.976 68.6181C167.058 68.5057 167.088 68.0775 167.088 68.2165C167.088 68.7359 167.088 69.2553 167.088 69.7746C167.088 70.607 167.014 71.7822 166.542 72.4893C166.259 72.9138 166.085 73.6127 165.9 74.1117C165.653 74.7776 165.455 75.4156 165.281 76.1115C164.924 77.5425 165.247 79.3583 164.406 80.6573C163.795 81.6008 163.313 82.54 162.615 83.4122C161.803 84.4264 160.696 85.2375 159.973 86.3356C158.776 88.1511 157.296 89.5748 155.764 91.1063C154.353 92.5174 152.765 93.9044 151.186 95.1221C149.765 96.218 148.428 97.3669 147.042 98.5275C145.042 100.202 142.782 101.927 141.235 104.053C140.404 105.196 139.974 106.427 139.404 107.699C138.663 109.353 137.641 110.896 136.866 112.542C136.674 112.951 136.398 114.158 136.007 114.382C135.804 114.497 135.365 114.414 135.139 114.414" stroke="black" stroke-width="6" stroke-linecap="round"/>
<path d="M134.705 114.558C134.705 115.195 134.569 115.676 134.416 116.285C134.331 116.626 133.983 116.897 133.983 117.233C133.983 117.853 132.826 118.626 132.826 119.265C132.826 120.863 130.973 118.912 130.658 118.638C129.827 117.918 129.098 117.122 128.232 116.438C127.683 116.004 126.888 115.838 126.385 115.361C125.671 114.687 124.836 114.145 123.935 113.707C122.917 113.212 121.747 112.702 120.682 112.318C119.707 111.965 118.8 111.585 117.855 111.169C117.153 110.86 116.403 110.92 115.687 110.719C114.041 110.258 112.337 109.728 110.996 108.631C109.455 107.37 108.229 105.845 106.876 104.374C104.293 101.567 102.489 98.0238 100.845 94.6081C99.914 92.6754 98.6842 90.8862 98.0496 88.8093C97.6598 87.5338 97.3019 86.2523 96.8368 85.0024C96.435 83.9224 96.4598 82.6828 95.9694 81.6613C95.2614 80.1863 94.8303 77.992 94.8049 76.3605C94.7732 74.3371 94.3068 72.1399 94.9494 70.1762C95.4373 68.6853 95.9797 67.258 96.9734 66.0159C97.7867 64.9992 98.9631 63.3986 100.154 62.8033" stroke="black" stroke-width="6" stroke-linecap="round"/>
<path d="M99.8647 63.237C99.8647 62.3204 101.211 61.3488 101.752 60.6268C102.58 59.5236 103.567 58.4013 104.258 57.1732C104.576 56.6084 104.837 56.0074 105.149 55.4384C105.497 54.807 105.612 54.1683 105.904 53.551C106.22 52.8838 106.424 52.0687 106.081 51.3825" stroke="black" stroke-width="6" stroke-linecap="round"/>
<path d="M79.8292 125.741C80.0498 126.355 80.8938 127.78 80.2539 127.652C80.1191 127.625 80.0928 127.31 79.9177 127.36C79.7392 127.411 79.8292 128.14 79.8292 128.289" stroke="black" stroke-width="5" stroke-linecap="round"/>
<path d="M75.6882 136.412C75.5184 136.412 74.8431 136.311 74.768 136.483C74.6286 136.801 75.6566 137.145 75.8475 137.208" stroke="black" stroke-width="5" stroke-linecap="round"/>
<path d="M92.2521 147.561C91.6917 147.561 90.8186 148.015 90.8186 148.596C90.8186 149.676 90.5001 150.666 90.5001 151.772C90.5001 153.517 89.1933 154.994 88.6685 156.568C88.5827 156.825 88.502 159.29 88.9163 159.152C89.537 158.945 89.5602 157.242 89.5445 156.71C89.5314 156.266 88.7373 156.481 88.5535 156.71C88.0957 157.278 86.9297 158.799 87.5802 159.594C87.8353 159.906 88.5218 159.868 88.872 159.789C89.3899 159.671 89.379 159.144 89.3852 158.709C89.3965 157.917 89.0993 155.722 87.8633 157.01C86.7261 158.196 86.194 160.345 85.7575 161.859C85.4045 163.083 84.6078 165.305 85.3151 166.567C85.8452 167.512 87.7676 167.209 87.5979 165.965C87.3702 164.295 84.1473 161.466 82.5721 163.186C81.7383 164.097 81.8144 165.778 81.9616 166.903C82.1669 168.472 83.1122 170.154 84.6072 170.831C86.6154 171.741 88.1626 170.588 87.7483 168.433C87.4429 166.846 85.2212 165.93 83.7578 166.283C83.6707 166.304 82.7656 166.737 83.0765 166.814C83.8314 167.003 84.5833 166.398 85.085 165.929C85.7914 165.269 86.2933 164.505 86.1822 163.505C86.1003 162.768 85.4825 162.561 84.8107 162.753C83.5009 163.127 79.812 167.408 82.6694 167.363C83.9813 167.342 85.2978 166.813 86.1556 165.797C86.6027 165.267 87.1389 164.312 86.4653 163.744C84.7469 162.294 82.6072 163.915 82.3951 165.823C82.1947 167.628 84.6278 165.11 84.9611 164.726C85.5042 164.101 86.4871 163.156 86.5184 162.249C86.5325 161.841 85.1457 163.654 85.1381 163.664C84.3866 164.695 81.9598 167.658 82.7491 166.655C84.2473 164.752 85.848 162.956 87.1555 160.904C87.1688 160.883 88.8377 158.042 88.0934 158.302C87.4913 158.513 87.0125 159.029 86.6157 159.497C85.5536 160.75 84.6444 162.157 83.687 163.487C83.0436 164.382 81.3867 166.052 81.1387 167.221C80.9783 167.977 82.4005 166.328 83.0145 165.859C85.7477 163.769 88.79 161.955 91.9335 160.55C92.882 160.126 94.1705 159.521 93.6324 161.098C92.8954 163.258 91.4556 165.096 90.1108 166.903C89.6371 167.539 90.4619 167.32 90.9425 167.31C91.5163 167.297 92.2999 167.287 92.4467 166.602C92.6052 165.862 92.5279 165.079 92.8891 164.39C93.0569 164.07 93.4457 163.596 93.6501 164.177C93.9398 165.002 93.418 168.156 95.0127 167.319C96.3074 166.639 97.1811 165.056 97.6141 163.717C97.7854 163.188 97.8904 162.032 96.9239 162.293C95.3906 162.707 94.4651 165.619 93.8359 166.823C93.2846 167.878 92.7074 168.92 92.0751 169.929C91.8662 170.262 91.4356 171.253 91.3584 170.867C91.3021 170.585 91.7798 169.871 91.8804 169.681C92.3176 168.857 92.8063 168.062 93.2608 167.248C93.8323 166.223 94.3643 165.121 94.703 163.992C95.0151 162.951 94.7923 165.308 94.7915 165.354C94.7715 166.473 94.7197 167.59 94.6765 168.708C94.6617 169.089 94.5409 169.793 94.6676 170.194C94.9011 170.934 95.7353 168.678 95.7383 168.664C96.1103 166.845 96.2652 164.739 95.7383 162.939C95.5445 162.277 95.2097 161.19 94.4287 161.912C92.9083 163.319 91.8914 165.386 90.7656 167.097C90.6151 167.326 88.9653 169.911 89.3587 169.619C90.6864 168.636 91.7488 167.082 92.9245 165.921C93.0065 165.84 95.0339 163.794 95.0658 163.841C95.2284 164.08 94.4778 165.393 94.4376 165.478C93.966 166.48 93.4936 167.489 92.9599 168.46C92.9036 168.562 91.4902 170.768 92.0397 170.017C93.1952 168.438 93.9436 166.491 94.5703 164.655C94.5748 164.642 95.3296 162.394 95.0127 162.443C94.6353 162.502 94.1122 163.084 93.889 163.284C92.7225 164.331 91.5556 165.356 90.2878 166.283C87.1073 168.61 83.709 170.52 79.8646 171.468C78.9904 171.684 78.0685 172.143 77.9533 171.026C77.8117 169.652 77.5994 168.175 77.5994 166.797C77.5994 166.187 77.9968 165.915 78.2011 165.363C78.4941 164.572 79.0078 163.862 79.0328 163.01C79.0473 162.518 79.3947 161.998 79.5106 161.505C79.5982 161.133 80.0054 161.02 80.1477 160.7C80.2011 160.58 80.6857 160.011 80.6167 160.39C80.3965 161.601 78.2242 162.749 77.3871 163.478C76.6756 164.099 75.9321 164.984 76.6527 165.885C77.0913 166.433 77.5994 166.992 77.5994 167.708C77.5994 169.117 78.3546 169.192 77.0508 170.185C74.9623 171.777 72.8037 172.926 70.3527 173.68C70.0389 173.777 69.1584 174.186 69.4148 173.981C69.7485 173.714 70.3853 173.334 70.5916 172.973C70.7034 172.777 71.3286 172.484 71.5384 172.327C71.9952 171.984 70.5302 173.079 70.2908 173.185C69.8243 173.392 69.5401 173.824 69.0874 174.07C68.4045 174.441 67.8026 174.843 67.0877 175.149C66.4924 175.404 65.7976 175.767 65.3358 176.229C64.9266 176.638 65.3462 176.56 65.7251 176.512C66.9214 176.36 68.0014 175.928 69.1228 175.503C70.6721 174.917 72.2113 174.315 73.7416 173.68C74.6041 173.323 75.4078 172.748 76.343 172.601C77.3908 172.436 77.2809 172.739 77.2809 173.68C77.2809 174.979 77.3538 175.158 78.8736 174.884C80.1173 174.66 80.9932 173.781 81.7935 172.866C81.8731 172.775 82.4694 172.133 82.1474 171.964C81.0497 171.386 79.5988 173.177 79.1567 173.902C78.3749 175.184 79.2977 175.174 80.3689 175.105C81.1402 175.055 82.5316 173.158 81.5369 172.76C80.4288 172.317 78.9586 174.381 78.4754 175.025C77.1718 176.764 75.8537 178.928 75.352 181.069C75.1581 181.896 75.5574 182.328 76.4049 182.246C77.2807 182.16 77.885 181.334 78.2188 180.591C78.7612 179.383 79.3905 176.692 77.4578 176.565C75.723 176.451 73.9501 176.745 72.4763 177.706C71.4756 178.36 70.0076 179.686 70.0076 181.024C70.0076 182.075 72.8566 181.058 73.1842 180.927C75.2685 180.093 77.2302 178.735 78.847 177.184C80.3388 175.753 77.1956 176.575 76.6084 176.813C75.8353 177.125 74.6506 177.651 74.2017 178.423C73.8819 178.973 75.1082 178.722 75.2812 178.671C75.8318 178.508 76.8574 178.199 77.2101 177.698C77.5297 177.243 76.0759 177.438 76.0244 177.45C74.2854 177.861 72.6297 178.931 71.211 179.98C71.124 180.045 69.499 181.183 70.3439 181.166C71.4736 181.143 72.3847 180.04 72.3436 178.972C72.3259 178.512 71.7158 179.247 71.6357 179.326C70.7328 180.216 69.8471 181.124 68.9459 182.015C68.9188 182.042 67.9498 183.039 67.8841 183.006C67.8406 182.985 67.8867 182.474 67.8841 182.405C67.8757 182.188 67.4591 181.553 67.2116 181.715C66.7439 182.02 66.1321 182.728 66.1321 183.316C66.1321 183.714 65.553 183.855 65.8578 184.343C66.2492 184.969 68.2319 184.67 68.8043 184.67C70.3207 184.67 71.6787 184.488 73.1576 184.219C73.9331 184.078 73.1705 185.337 73.0603 185.643C72.677 186.71 72.5028 187.707 72.5028 188.837C72.5028 190.637 74.0594 187.331 74.1486 186.82C74.3074 185.911 74.3149 184.835 73.715 184.077C73.5305 183.844 73.1082 183.502 73.0072 184.024C72.7855 185.17 72.6218 187.479 73.5381 188.395C73.824 188.681 73.777 188.024 73.777 187.908C73.777 187.077 73.6797 186.223 73.2107 185.511C71.5595 183.001 71.7194 188.198 71.8835 188.952C72.2073 190.441 73.1872 191.73 74.6972 192.12C75.4765 192.322 76.4403 192.375 76.7677 191.483C77.3847 189.802 77.0809 187.002 75.4051 186.05C73.6315 185.043 72.4705 186.58 72.5028 188.262C72.5191 189.107 72.9371 189.601 73.777 189.731C74.2286 189.801 75.0103 189.874 75.2635 189.377C75.8658 188.195 73.6962 186.027 73.4054 186.864C72.3763 189.828 76.0702 191.838 78.4488 190.563C79.1253 190.2 79.408 189.474 79.0151 188.776C78.5681 187.981 77.7471 187.826 77.1747 187.254C77.1074 187.186 77.3357 187.151 77.4224 187.112C77.975 186.864 78.4873 186.564 78.9797 186.21C80.3929 185.192 81.4593 183.859 82.2536 182.316C82.4387 181.957 83.0774 180.669 82.5013 180.317C81.7408 179.852 80.3404 180.615 79.7407 180.989C79.0266 181.434 77.1747 182.642 77.1747 183.67C77.1747 184.208 79.2447 183.656 79.4398 183.59C80.4053 183.269 81.8956 182.619 82.404 181.662C82.6725 181.156 82.3436 180.835 81.82 180.874C80.7041 180.957 79.5039 184.67 80.3335 184.67C82.2151 184.67 83.7569 181.788 83.9524 180.175C84.08 179.123 83.7599 180.688 83.7401 180.892C83.6469 181.851 83.4948 183.02 83.6693 183.98C83.778 184.578 84.7364 183.855 84.8903 183.714C86.1206 182.589 87.2481 181.175 88.1907 179.803C88.882 178.798 88.4028 179.033 88.1465 179.945C87.9169 180.762 87.7856 181.613 87.651 182.449C87.6135 182.682 87.3651 183.577 87.5448 183.856C87.7887 184.234 89.504 182.346 89.633 182.192C90.0547 181.689 90.6906 179.855 90.6594 180.511C90.6042 181.669 90.1121 182.875 89.8984 184.015C89.6897 185.128 89.8014 184.933 89.6684 184.068C89.022 179.867 81.8572 185.228 80.6255 186.033C79.1424 187.001 77.6461 187.887 76.0421 188.643C75.5589 188.87 74.2105 189.663 73.5469 189.59C73.2973 189.562 75.6906 187.409 75.9006 187.254C76.0344 187.154 77.1537 186.043 77.2455 186.634C77.4407 187.892 77.2656 189.204 77.4401 190.474C77.6749 192.183 78.403 191.206 78.2011 190.05C77.8846 188.237 75.8143 188.695 75.3166 190.12C75.0047 191.014 74.8125 192.345 75.8121 192.881C76.8381 193.432 78.2092 193.564 79.3248 193.748C81.1113 194.043 82.9092 194.282 84.7134 194.438C84.9643 194.46 87.3992 194.535 87.1732 194.58C85.6138 194.892 84.0738 195.191 82.5013 195.447C80.9798 195.695 79.464 196.075 77.9179 196.137C77.2805 196.163 79.163 196.45 79.7407 196.721C81.313 197.459 82.5088 198.632 83.9347 199.57C84.346 199.841 83.5865 198.745 83.5808 198.739C82.4501 197.425 81.4116 195.965 80.13 194.792C78.9261 193.691 79.8978 195.333 80.2716 195.748C80.3452 195.83 81.712 197.062 80.9971 196.633C80.5876 196.387 80.228 196.062 79.8557 195.766C79.6275 195.584 78.9682 195.423 79.1744 195.217C79.5033 194.888 82.7012 196.828 83.103 197.022C84.2018 197.553 85.2505 197.777 86.4299 198.013C86.5889 198.045 83.9125 197.886 84.8549 198.119C86.566 198.542 88.1858 199.078 89.9515 199.287C91.7552 199.501 93.588 199.573 95.402 199.464C96.4673 199.4 97.9639 199.362 98.959 198.854C99.8293 198.409 95.9738 197.696 95.756 197.677C94.6976 197.581 92.2266 197.215 91.3672 198.128C90.8298 198.699 92.3509 199.375 92.6325 199.455C93.6959 199.759 95.3929 199.971 95.8621 198.668C96.1892 197.759 95.6798 196.677 94.818 196.27C93.7949 195.787 93.7355 197.086 93.7032 197.765C93.6938 197.962 93.5092 200.365 94.2341 200.075C94.8364 199.834 94.962 198.137 95.0215 197.641C95.0416 197.474 95.2887 195.305 94.9331 195.394C94.1856 195.581 93.9385 197.154 93.8713 197.748C93.736 198.943 94.629 198.367 95.2604 197.854C96.6891 196.692 98.4517 194.677 98.3573 192.695C98.2646 190.748 95.6174 190.554 94.181 190.563C92.864 190.571 91.6119 190.805 90.3762 191.253C90.0028 191.388 88.9414 191.701 89.3233 191.81C90.7991 192.232 93.039 191.845 94.5349 191.731C95.5285 191.655 96.5106 191.504 97.499 191.386C97.8358 191.345 97.8484 191.37 97.5964 191.324C96.7652 191.171 94.7157 191.013 96.3045 190.209C96.9219 189.897 97.6332 189.729 98.2334 189.413C98.3595 189.346 96.9923 189.321 96.9416 189.324C96.1984 189.366 93.9675 189.448 94.7119 189.448C95.7205 189.448 96.7293 189.453 97.738 189.448C98.4923 189.444 99.2518 189.448 100.003 189.368C100.509 189.315 100.235 189.284 100.003 189.289C97.5023 189.338 94.7884 189.634 92.429 190.492C91.0382 190.998 91.6363 191.378 92.783 191.518C97.7697 192.128 102.829 189.959 107.135 187.678C109.139 186.617 111.122 185.364 112.656 183.67C112.997 183.293 113.817 182.412 113.647 181.75C113.332 180.523 111.169 182.295 110.922 182.511C108.853 184.323 107.239 186.565 105.347 188.545C104.189 189.759 106.512 187.556 106.568 187.501C108.278 185.863 110.104 184.284 111.559 182.405C112.601 181.059 111.189 182.202 110.727 182.608C108.565 184.511 106.393 186.491 104.356 188.528C103.833 189.052 104.558 188.503 104.569 188.492C105.285 187.816 105.898 187.015 106.507 186.245C107.107 185.486 109.129 183.434 108.612 182.246C108.195 181.285 105.84 182.438 105.374 182.715C105.13 182.859 104.091 183.471 104.091 183.909C104.091 184.537 105.026 183.068 105.454 182.608C107.378 180.535 109.513 178.631 111.382 176.512C112.988 174.692 108.136 180.124 106.436 181.856C104.856 183.465 103.182 184.982 101.348 186.298C101.077 186.493 100.254 187.121 100.773 186.404C102.699 183.741 104.977 181.327 107.232 178.945C107.645 178.509 108.772 176.955 109.453 176.689C109.516 176.664 109.481 176.827 109.462 176.892C109.368 177.204 108.646 178.836 108.63 178.874C108.485 179.22 107.008 183.434 107.303 183.307C108.437 182.821 109.291 181.38 109.568 180.237C109.772 179.394 109.676 178.427 108.665 178.255C108.053 178.151 107.399 178.233 106.799 178.37C106.539 178.429 105.875 178.82 106.038 178.609C106.995 177.364 107.938 176.111 108.851 174.831C109.339 174.147 110.694 172.035 110.338 172.796C110.232 173.021 108.845 175.378 108.533 174.884C108.258 174.449 107.773 172.955 108.25 172.849C109.015 172.679 109.957 172.463 110.727 172.406C112.014 172.311 112.735 171.124 114.196 171.645C116.814 172.581 114.98 175.855 113.346 176.954C112.647 177.425 111.57 176.27 111.7 177.184C111.937 178.841 114.36 177.158 114.753 176.432C115.551 174.959 111.738 175.339 111.178 175.539C110.181 175.894 109.483 177.596 110.993 177.804C111.703 177.902 112.6 177.73 113.152 177.255C113.272 177.151 113.866 176.342 113.461 176.246C112.136 175.935 110.858 178.214 110.426 179.104C110.229 179.512 109.715 180.453 110.462 180.706C111.044 180.903 111.949 180.779 112.435 180.396C112.922 180.013 112.957 179.197 112.957 178.627C112.957 178.11 112.965 179.284 112.983 179.388C113.132 180.23 115.51 180.66 115.461 180.166C115.406 179.619 114.863 179.225 114.656 178.742C114.553 178.503 114.323 177.703 114.656 178.299C115.037 178.983 115.718 179.745 116.302 180.264C116.528 180.465 116.918 180.63 117.062 180.918C117.373 181.54 117.641 182.033 118.018 182.599C118.365 183.12 119.152 183.45 119.611 183.909C120.535 184.834 121.662 185.494 122.831 186.103C123.379 186.389 123.894 186.782 124.46 187.024C124.867 187.197 125.323 187.17 125.698 187.413C126.473 187.916 127.492 188.471 128.37 188.776C128.702 188.89 127.951 188.587 127.893 188.545C127.106 187.991 126.528 187.504 125.592 187.183C124.817 186.917 123.961 186.545 123.141 186.448C122.266 186.346 124.378 187.711 125.079 188.245C125.372 188.468 127.433 189.539 127.433 189.997C127.433 190.551 126.34 189.714 125.875 189.413C123.693 187.996 121.604 186.325 119.221 185.245C119.034 185.16 118.185 184.799 118.726 185.396C119.454 186.199 120.394 186.891 121.274 187.51C122.504 188.375 124.233 189.597 125.804 189.74C126.403 189.794 125.204 188.663 124.734 188.289C123.083 186.977 121.307 185.823 119.735 184.413C119.45 184.158 118.85 183.757 118.85 183.307C118.85 182.491 119.989 181.855 120.204 180.998C120.351 180.409 120.427 179.537 120.124 179.007C119.712 178.287 119.627 177.619 119.416 176.804C119.305 176.375 118.59 174.876 119.496 175.601C120.356 176.288 120.921 176.891 121.628 177.733C122.079 178.269 122.327 178.986 122.752 179.573C123.285 180.312 124.213 181.136 124.999 181.573C126.537 182.427 128.045 182.783 129.724 183.263C131.535 183.781 133.146 184.804 134.98 185.219C135.782 185.4 136.482 185.367 137.298 185.484C138.404 185.642 139.464 186.546 140.59 186.82C143.11 187.433 145.703 187.102 148.244 187.572C149.503 187.805 150.372 188.621 151.464 189.218C152.55 189.812 153.879 189.996 154.933 190.598C155.091 190.688 155.424 191.098 155.251 191.041C154.548 190.806 153.92 189.942 153.393 189.466C151.912 188.125 150.777 187.696 148.792 187.696C147.388 187.696 146.71 188.179 145.412 188.457C144.049 188.749 146.335 188.618 146.695 188.669C147.205 188.742 147.543 188.97 148.075 188.97C148.234 188.97 148.901 189.061 148.943 188.873C149.082 188.246 148.738 188.174 148.226 188.174C147.393 188.174 146.638 188.492 145.828 188.492C144.323 188.492 142.918 188.297 141.404 188.492C140.579 188.599 140.189 188.654 139.387 188.413C138.406 188.119 137.44 188.291 136.458 188.094C135.628 187.928 134.522 187.592 133.821 187.112C133.471 186.873 132.726 186.642 132.706 186.139C132.671 185.26 136.251 186.796 136.882 187.254C137.294 187.552 137.602 188.025 138.05 188.262C138.187 188.334 138.601 188.364 138.334 188.103C137.858 187.64 137.055 187.392 136.458 187.218C134.429 186.626 132.31 186.436 130.229 186.121C125.539 185.412 121.239 184.173 116.779 182.635C116.009 182.369 113.508 180.98 113.222 182.493C112.925 184.066 113.564 186.141 114.727 187.236C115.209 187.69 115.581 187.837 115.47 187.041C115.266 185.589 114.309 183.828 112.939 183.166C110.795 182.128 110.498 188.786 113.107 187.094C113.376 186.92 114.756 185.782 114.001 185.404C112.088 184.448 110.241 187.663 109.656 188.882C108.912 190.434 108.195 193.64 111.116 192.509C111.811 192.241 114.448 190.254 112.745 189.643C110.247 188.746 106.689 189.811 105.206 192.014C103.503 194.544 108.935 193.816 110.002 193.509C110.659 193.32 112.906 192.237 111.665 191.306C110.813 190.667 110.03 191.715 109.63 192.377C109.47 192.641 108.538 195.106 108.913 194.474C109.174 194.035 109.851 192.326 109.303 191.908C108.958 191.646 107.841 192.071 107.595 192.156C106.305 192.6 105.096 193.245 103.967 194.005C103.511 194.311 102.447 194.65 102.746 195.111C102.868 195.298 103.856 194.694 103.87 194.686C103.951 194.64 104.872 194.175 104.887 193.978C104.932 193.401 103.828 194.451 103.321 194.73C102.008 195.455 100.714 196.224 99.4545 197.04C99.0128 197.326 97.7521 198.121 98.2777 198.093C99.9283 198.003 102.004 196.617 103.436 195.872C104.827 195.148 104.242 195.104 103.365 195.836C103.031 196.116 100.807 197.938 102.41 197.217C106.519 195.368 110.687 193.653 114.886 192.014C115.373 191.824 116.491 191.284 115.549 192.067C114.424 193.002 113.299 193.929 112.249 194.952C111.586 195.597 109.599 197.253 110.515 197.119C111.769 196.936 113.738 195.18 114.727 194.58C116.411 193.558 118.127 192.504 119.929 191.695C120.843 191.285 120.89 191.582 120.531 192.492C119.499 195.108 114.514 201.993 115.912 199.553C117.96 195.979 121.303 193.152 124.548 190.704C125.821 189.745 121.975 192.635 120.513 193.27C120.264 193.379 120.588 192.708 120.752 192.492C121.244 191.846 121.787 191.243 122.301 190.616C122.439 190.446 122.781 189.97 122.566 190.014C121.573 190.218 120.523 190.791 119.646 191.253C118.58 191.815 117.437 192.446 116.514 193.235C115.903 193.757 117.092 193.501 117.239 193.483C117.741 193.421 122.348 192.314 122.531 192.633C122.725 192.973 113.523 198.334 112.851 198.703C112.169 199.078 110.103 200.09 110.683 199.57C111.704 198.656 113.038 197.963 114.213 197.288C115.586 196.499 119.866 194.526 118.337 194.934C117.479 195.162 116.772 195.884 115.974 196.252C115.747 196.357 116.321 195.892 116.496 195.713C117.137 195.055 117.777 194.376 118.319 193.633C119.076 192.594 117.568 194.587 117.399 195.005C117.183 195.537 117.571 195.044 117.231 194.81C116.753 194.482 116.324 194.891 116.24 195.35C116.167 195.746 115.816 198.077 116.576 197.863C117.532 197.592 118.553 196.817 119.381 196.332C120.915 195.433 122.446 194.527 123.946 193.571C124.333 193.325 125.534 192.843 125.079 192.793C124.714 192.752 123.826 193.231 123.584 193.332C122.114 193.948 117.872 196.159 119.319 195.491C121.486 194.491 123.341 192.76 125.451 191.616C126.038 191.297 125.787 191.515 125.468 191.89C124.424 193.119 123.366 194.336 122.309 195.553C121.054 196.999 119.807 198.451 118.584 199.924C118.351 200.206 117.623 200.986 117.947 200.818C119.967 199.77 122.024 198.509 123.92 197.252C124.266 197.023 125.206 196.58 124.831 196.403C124.617 196.301 123.555 196.954 123.495 196.987C122.643 197.448 120.175 198.907 121.106 198.641C122.163 198.339 123.179 197.857 124.212 197.482C124.242 197.471 125.286 196.974 124.778 197.482C123.995 198.265 123.085 198.942 122.23 199.641C121.776 200.013 120.339 200.735 120.92 200.818C121.331 200.877 122.38 200.219 122.69 200.084C123.598 199.686 124.518 199.313 125.415 198.889C125.511 198.844 126.109 198.449 126.3 198.438C126.389 198.433 126.5 199.194 126.565 199.287C126.928 199.802 128.403 199.364 128.777 199.234C130.222 198.735 131.512 197.818 132.671 196.845C133.311 196.308 134.912 195.126 134.511 193.996C133.82 192.049 130.311 191.565 128.601 191.518C128.393 191.513 127.543 191.501 127.68 191.996C127.87 192.678 129.094 191.35 129.185 191.182C129.735 190.158 127.867 190.618 127.433 190.74C127.031 190.853 126.002 191.12 126.344 191.359C126.663 191.583 127.811 190.708 127.946 190.598C127.949 190.596 129.399 188.952 129.193 188.952C128.559 188.952 127.123 191.127 126.866 191.483C126.515 191.971 125.811 193.437 126.371 193.217C127.085 192.937 127.653 192.069 127.963 191.412C128.304 190.692 127.986 189.235 127.468 190.669C127.122 191.628 125.837 195.815 128.087 195.252C128.821 195.069 129.561 194.685 130.246 194.368C130.808 194.107 129.984 194.665 129.928 194.722C128.068 196.61 125.879 199.353 125.132 201.942C125.099 202.056 125.068 202.232 125.167 202.296C125.594 202.568 126.118 201.94 126.565 201.703C128.392 200.734 130.224 199.778 132.069 198.845C132.555 198.599 134.05 197.992 133.511 198.075C133.13 198.134 132.737 198.298 132.37 198.402C131.391 198.68 130.399 198.905 129.415 199.163C129.225 199.213 127.603 199.497 127.45 199.853C127.426 199.91 127.557 199.923 127.618 199.933C128.006 199.994 128.766 199.935 129.069 199.907C130.63 199.76 132.154 199.428 133.662 199.004C134.19 198.855 135.594 198.155 136.219 198.155C136.285 198.155 136.109 198.23 136.051 198.261C135.379 198.621 134.321 199.137 133.715 199.429C131.576 200.46 129.414 201.444 127.3 202.526C126.886 202.737 126.476 202.955 126.07 203.18C125.791 203.335 125.2 203.401 125.274 203.711C125.327 203.937 134.215 202.062 134.706 201.959C136.518 201.582 138.345 201.198 140.121 200.668C140.767 200.475 140.649 200.471 140.192 200.685C137.386 202.002 134.272 202.612 131.202 202.915C128.678 203.164 131.845 202.158 132.458 201.959C135.158 201.084 138.156 200.613 140.74 199.429C142.144 198.785 137.798 200.394 136.281 200.685C134.402 201.045 135.918 200.931 136.829 200.915C138.075 200.894 139.208 200.754 140.351 200.278" stroke="black" stroke-width="5" stroke-linecap="round"/>
<path d="M141.944 198.367C142.395 198.593 142.692 198.885 143.094 199.163C144.346 200.03 145.878 200.024 147.359 200.084C148.495 200.129 149.799 200.274 150.925 200.039C151.266 199.968 150.326 199.96 150.279 199.96C147.941 199.96 145.649 200.016 143.324 200.278C141.134 200.525 138.924 200.437 136.723 200.437C135.632 200.437 135.545 199.24 136.697 199.172C137.375 199.132 137.997 199.323 138.652 199.323C140.468 199.323 135.009 199.412 133.219 199.721C132.234 199.891 131.246 200.055 130.264 200.243C129.767 200.338 130.543 200.267 130.609 200.261C132.706 200.056 134.835 198.929 136.874 198.376C137.256 198.272 138.409 198.016 138.015 198.048C137.332 198.105 136.667 198.435 136.042 198.686C135.356 198.96 132.786 199.74 134.688 198.756C136.16 197.995 134.55 199.351 134.086 199.703C133.411 200.216 133.499 200.841 132.936 201.482C132.702 201.748 133.962 200.777 134.016 200.738C135.064 199.984 136.171 199.329 137.289 198.686C139.478 197.427 141.938 196.45 144.333 195.659C146.371 194.986 148.431 194.428 150.031 192.828C150.385 192.474 149.498 192.814 149.465 192.828C148.524 193.222 147.649 193.625 146.651 193.872C146.556 193.896 145.705 194.067 145.819 194.067C146.576 194.067 147.33 194.067 148.084 194.138C152.484 194.547 156.684 195.885 161.109 196.208C162.445 196.306 163.772 196.398 165.108 196.465C165.591 196.489 165.515 196.701 165.515 197.102C165.515 198.2 165.708 199.482 164.17 199.482C163.823 199.482 162.677 200.094 162.772 200.119C163.664 200.357 164.588 200.437 165.506 200.437C166.081 200.437 165.863 200.42 165.418 200.517C165.034 200.601 164.41 200.702 164.011 200.588C163.94 200.567 164.241 200.156 164.241 199.96" stroke="black" stroke-width="5" stroke-linecap="round"/>
<path d="M132.069 141.668C131.582 141.668 131.054 141.608 130.733 142.057C130.661 142.158 131.585 142.145 131.75 142.145" stroke="black" stroke-width="5" stroke-linecap="round"/>
<path d="M138.758 144.375C139.922 144.375 139.379 145.373 139.148 145.968C138.524 147.57 138.337 149.218 137.767 150.817C137.298 152.133 136.553 152.985 135.661 154.02C135.304 154.435 134.14 155.362 134.14 155.931C134.14 156.554 133.659 157.001 133.379 157.506C133.272 157.699 132.794 157.913 132.865 157.913" stroke="black" stroke-width="5" stroke-linecap="round"/>
<path d="M165.037 151.224C164.827 151.516 164.456 151.955 164.064 152.011C163.687 152.065 163.233 152.004 163.516 152.569C163.893 153.323 164.781 153.732 165.285 154.418C166.105 155.533 166.789 156.47 166.789 157.895C166.789 158.323 166.964 159.196 166.754 159.594C166.585 159.916 165.596 159.983 166.144 159.983C166.549 159.983 169.329 159.847 169.267 160.019C168.898 161.047 166.359 160.858 165.621 160.55C164.999 160.29 164.878 159.937 164.878 159.338C164.878 159.242 165.049 158.121 165.161 158.497C165.414 159.34 165.388 161.186 165.099 162.019C164.796 162.894 164.058 162.474 163.923 161.78C163.868 161.501 163.267 159.681 163.834 159.665C164.184 159.655 164.549 159.748 164.861 159.904C165.006 159.976 165.431 160.07 165.285 160.143C164.713 160.429 163.107 159.852 162.489 159.833C160.977 159.786 159.452 159.792 157.95 159.992C155.872 160.269 153.673 161.07 151.57 160.904C150.961 160.856 150.496 160.187 149.987 159.904C149.965 159.892 148.19 159.597 149.022 159.222C149.689 158.922 150.909 159.718 151.491 159.992C152.612 160.52 153.679 160.879 154.942 160.93C157.588 161.038 160.375 160.616 163.002 160.974C164.331 161.156 165.624 161.539 166.949 161.735C168.132 161.911 169.617 162.183 170.736 162.602C171.198 162.776 171.534 163.116 171.727 163.549C171.79 163.692 171.958 163.63 172.081 163.682C172.403 163.818 172.535 164.237 172.682 164.523C172.867 164.878 173.045 165.934 173.479 166.036C173.569 166.057 174.102 166.866 174.116 166.991C174.165 167.432 174.261 167.813 174.434 168.203C174.738 168.887 175.079 169.479 175.478 170.106C175.602 170.3 175.927 170.655 175.992 170.849C176.306 171.792 174.949 169.154 174.505 168.265C174.359 167.974 173.983 166.543 173.479 166.513C172.697 166.467 172.364 166.623 172.364 167.469C172.364 168.297 172.683 168.036 173.319 168.354C173.851 168.62 173.629 167.965 173.868 167.593C174.239 167.015 174.699 166.832 175.354 166.832C177.812 166.832 180.09 168.106 182.592 168.106C183 168.106 183.374 168.216 183.76 168.345C184.212 168.495 184.693 168.332 185.141 168.46C185.75 168.634 186.764 168.623 187.246 169.062C187.668 169.445 188.41 169.312 188.892 169.734C189.21 170.012 188.261 169.141 187.866 168.991C186.943 168.641 185.762 168.584 184.787 168.584C183.114 168.584 181.442 168.584 179.77 168.584C178.709 168.584 177.386 168.786 176.345 168.548C175.81 168.426 172.523 168.006 172.523 167.628" stroke="black" stroke-width="5" stroke-linecap="round"/>
<path d="M190.361 161.576C189.725 161.576 189.086 161.558 188.45 161.576C187.58 161.601 186.237 161.584 185.415 161.824C184.025 162.229 182.629 162.066 181.221 162.293C180.156 162.465 179.049 162.463 177.974 162.567C176.805 162.68 175.158 162.807 174.116 163.328" stroke="black" stroke-width="5" stroke-linecap="round"/>
<path d="M183.672 167.469C183.759 167.817 185.79 167.635 186.061 167.593C187.347 167.395 188.428 167.034 189.653 166.593C190.791 166.183 192.372 166.027 193.378 165.399C194.096 164.95 195.113 165.039 195.617 164.284" stroke="black" stroke-width="5" stroke-linecap="round"/>
<path d="M115.188 177.321C115.176 177.293 114.85 176.339 114.871 176.802C114.888 177.169 114.943 177.538 115.074 177.883C115.174 178.146 115.441 178.751 115.828 178.665C116.018 178.623 115.865 177.529 115.828 177.378C115.794 177.24 115.716 177.133 115.704 177.349C115.677 177.823 115.704 178.339 115.903 178.776C115.996 178.981 116.775 179.916 117.037 179.448C117.246 179.075 117.105 178.299 117.685 178.231C118.117 178.181 118.595 178.356 119.001 178.477C119.472 178.617 119.954 178.726 120.423 178.872C120.572 178.918 120.745 179.019 120.647 178.779C120.535 178.502 120.345 178.262 120.224 177.986C120.219 177.974 120.587 178.28 120.665 178.345C120.985 178.61 121.307 178.86 121.668 179.067C121.775 179.129 121.94 179.242 122.074 179.242C122.226 179.242 121.809 179.088 121.69 178.993C119.773 177.466 117.506 176.766 115.362 175.649C114.177 175.032 113.864 173.75 112.862 172.932C112.264 172.444 111.513 172.225 110.834 171.879C110.517 171.717 110.307 171.487 110.034 171.274C109.92 171.186 110.33 171.239 110.351 171.239C110.71 171.239 111.069 171.239 111.428 171.239C111.701 171.239 111.859 171.206 111.859 171.495" stroke="black" stroke-width="5" stroke-linecap="round"/>
<path d="M94.8003 199.323C94.5022 200.217 98.9221 199.057 96.685 200.11C96.0983 200.386 95.3631 200.576 94.7118 200.597C93.8333 200.624 96.4697 200.597 97.3486 200.597" stroke="black" stroke-width="5" stroke-linecap="round"/>
<path d="M152.615 199.96C150.825 200.278 148.99 199.995 147.235 200.314C146.857 200.382 145.61 200.921 145.448 200.597" stroke="black" stroke-width="5" stroke-linecap="round"/>
<path d="M148.792 189.448C149.195 189.448 149.602 189.289 150.066 189.289" stroke="black" stroke-width="5" stroke-linecap="round"/>
<path d="M74.8919 173.043C75.1224 172.784 77.1377 170.225 77.5198 170.531C77.9354 170.863 77.3711 172.445 77.2455 172.778C76.7946 173.973 76.0415 175.044 75.5378 176.22C74.6713 178.242 73.1256 179.85 71.1402 180.777C70.6606 181.001 70.2369 180.971 69.7245 181.042C68.8968 181.157 68.1339 181.491 67.3355 181.715C67.2691 181.733 66.4797 181.962 66.9639 181.962C67.7397 181.962 68.4344 181.57 69.1051 181.228C72.7069 179.393 76.5585 177.336 79.7053 174.804C82.5785 172.492 84.6839 169.43 87.6244 167.168C88.7301 166.318 89.6844 165.253 91.0133 164.761C92.6643 164.151 93.3259 165.669 94.7649 165.717C96.2209 165.766 97.0604 164.352 97.5079 163.08C98.0027 161.674 97.6517 163.192 97.3486 163.806C96.8373 164.842 96.2528 165.836 95.7648 166.885C95.5833 167.275 95.2781 167.664 95.2781 168.106C95.2781 168.556 94.494 169.517 94.4818 169.309C94.4141 168.158 94.2844 167.093 95.3135 166.407C95.7536 166.114 95.9614 165.383 96.393 165.239" stroke="black" stroke-width="5" stroke-linecap="round"/>
<path d="M109.584 64.8789V53.4011L110.002 52.775L114.804 49.436L118.77 47.3491L125.66 44.4275L130.671 43.5927L134.637 44.4275L140.9 47.3491L150.086 53.4011V56.3227V61.1225V65.505V69.4701L149.043 73.0178L146.746 78.4437L140.9 86.3738L137.351 90.1302L134.637 92.4258L130.671 93.2606L126.704 92.4258L122.946 90.1302L117.518 84.0783L112.507 77.1916L109.584 69.4701V64.8789Z" fill="#FFC296"/>
<path d="M113.551 87.626V84.7043L118.77 90.965L122.111 94.9301L126.704 97.017H130.671L136.516 94.9301L140.274 92.4258L142.362 87.626L145.702 83.2435L150.086 89.0868L149.043 90.965L144.241 94.9301L140.274 100.356L134.637 103.486L130.671 105.573L124.825 103.486L119.606 99.7299L114.804 94.9301L110.837 90.1302L113.551 87.626Z" fill="#FFC296"/>
<path d="M112.499 77.4979L109.431 69.5202L110.351 63.0767L113.266 52.7978L119.71 47.8884L129.682 45.894L141.802 48.8089L148.859 56.7866V63.0767L147.478 71.3612L146.251 82.4073L146.711 100.51C147.325 104.96 148.552 114.195 148.552 115.545V125.978C148.501 129.404 148.43 136.441 148.552 137.177C148.706 138.098 153.155 143.621 153.308 144.695C153.431 145.554 149.933 153.542 148.552 156.508C152.49 158.962 161.133 161.908 161.133 161.417C161.133 160.803 167.576 148.683 167.576 145.615C167.576 143.16 166.962 132.319 166.656 127.205C164.866 119.994 161.255 105.205 161.133 103.732C161.01 102.259 162.82 92.6862 163.741 88.0837V77.4979C163.741 76.5774 163.894 62.0028 163.741 61.2357C163.618 60.622 157.655 52.0818 154.689 47.8884L144.257 41.4449L129.068 37.9163L117.409 41.4449L108.357 46.6611L102.681 54.3319C100.635 58.2185 96.5439 66.1451 96.5439 66.7587C96.5439 67.3724 95.3166 70.901 94.7029 72.5886L96.5439 83.4812L98.9986 93.7601L94.7029 101.891L92.7085 119.994L90.1004 141.933L94.8563 156.508L96.7148 156.047L96.8508 156.508H98.9986L99.6123 156.047L100.379 157.121H104.828L107.283 158.042L109.891 115.545L112.499 96.5216L113.727 88.0837V85.7824L112.499 77.4979Z" fill="url(#paint1_linear_5_173)"/>
<g filter="url(#filter0_b_5_173)">
<g filter="url(#filter1_bd_5_173)">
<path d="M97.311 163.872H76.5997V172.31H82.583V202.379H89.3333V172.31H97.311V163.872Z" fill="black" stroke="black" stroke-width="20"/>
<path d="M207.925 162.951V177.526L201.635 174.764V168.781H193.657V174.764L207.925 185.043V199.771H187.367V185.043L193.657 187.038V195.015H201.635V187.651L187.367 177.526V162.951H207.925Z" fill="black" stroke="black" stroke-width="20"/>
<path d="M158.831 202.226L161.132 163.872H167.116L174.173 184.583V163.872H182.457L181.23 202.226H174.173L167.116 185.657V202.226H158.831Z" fill="black"/>
<path d="M167.116 163.872H161.132L158.831 202.226H167.116V185.657M167.116 163.872L174.173 184.583M167.116 163.872V185.657M174.173 202.226H181.23L182.457 163.872H174.173V184.583M174.173 202.226V184.583M174.173 202.226L167.116 185.657" stroke="black" stroke-width="20"/>
<path d="M130.142 201.459L131.83 163.872H153.922V201.459H130.142Z" fill="black" stroke="black" stroke-width="20"/>
<path d="M212.834 199.925L214.522 162.338H236.614V199.925H212.834Z" fill="black" stroke="black" stroke-width="20"/>
<path d="M47.9108 200.538L49.5984 162.951H71.6904V200.538H47.9108Z" fill="black" stroke="black" stroke-width="20"/>
<path d="M124.312 162.951V177.372L116.948 174.611V170.008H110.658V195.169H116.948V188.418L125.233 191.64V201.459L102.22 200.385V162.951H124.312Z" fill="black" stroke="black" stroke-width="20"/>
<path d="M16 211.584L20.7559 162.951H27.046L32.8759 191.64L34.2566 162.951H43.0014L40.5467 208.516H31.4951L25.7901 189.492L24.7448 211.584H16Z" fill="black"/>
<path d="M27.046 162.951H20.7559L16 211.584H24.7448L25.7901 189.492M27.046 162.951L32.8759 191.64M27.046 162.951L25.7901 189.492M31.4951 208.516H40.5467L43.0014 162.951H34.2566L32.8759 191.64M31.4951 208.516L32.8759 191.64M31.4951 208.516L25.7901 189.492" stroke="black" stroke-width="20"/>
<path d="M245.819 207.442L241.523 162.338H249.04L252.262 199.618L266.07 201.919L268.371 210.664L245.819 207.442Z" fill="black" stroke="black" stroke-width="20"/>
</g>
<path d="M97.311 162.951H76.5997V171.389H82.583V201.459H89.3333V171.389H97.311V162.951Z" fill="url(#paint2_linear_5_173)"/>
<path d="M207.925 162.031V176.605L201.635 173.844V167.861H193.657V173.844L207.925 184.123V198.851H187.367V184.123L193.657 186.117V194.095H201.635V186.731L187.367 176.605V162.031H207.925Z" fill="url(#paint3_linear_5_173)"/>
<path d="M158.831 201.305L161.132 162.951H167.116L174.173 183.662V162.951H182.457L181.23 201.305H174.173L167.116 184.736V201.305H158.831Z" fill="url(#paint4_linear_5_173)"/>
<path d="M130.142 200.538L131.83 162.951H153.922V200.538H130.142Z" fill="url(#paint5_linear_5_173)"/>
<path d="M212.834 199.004L214.522 161.417H236.614V199.004H212.834Z" fill="url(#paint6_linear_5_173)"/>
<path d="M47.9108 199.618L49.5984 162.031H71.6904V199.618H47.9108Z" fill="url(#paint7_linear_5_173)"/>
<path d="M124.312 162.031V176.452L116.948 173.69V169.088H110.658V194.248H116.948V187.498L125.233 190.72V200.538L102.22 199.464V162.031H124.312Z" fill="url(#paint8_linear_5_173)"/>
<path d="M16 210.664L20.7559 162.031H27.046L32.8759 190.72L34.2566 162.031H43.0014L40.5467 207.596H31.4951L25.7901 188.572L24.7448 210.664H16Z" fill="url(#paint9_linear_5_173)"/>
<path d="M245.819 206.522L241.523 161.417H249.04L252.262 198.697L266.07 200.999L268.371 209.743L245.819 206.522Z" fill="url(#paint10_linear_5_173)"/>
<path d="M62.6388 171.543H56.8089V194.709L62.6388 193.174V171.543Z" fill="black"/>
<path d="M144.87 172.463H139.04V195.782L144.87 194.709V172.463Z" fill="black"/>
<path d="M227.409 170.929H221.732V194.709L227.409 192.714V170.929Z" fill="black"/>
<path d="M62.6388 171.543H56.8089V194.709L62.6388 193.174V171.543Z" stroke="black"/>
<path d="M144.87 172.463H139.04V195.782L144.87 194.709V172.463Z" stroke="black"/>
<path d="M227.409 170.929H221.732V194.709L227.409 192.714V170.929Z" stroke="black"/>
</g>
<defs>
<filter id="filter0_b_5_173" x="0.97438" y="148.338" width="284.903" height="78.3574" filterUnits="userSpaceOnUse" color-interpolation-filters="sRGB">
<feFlood flood-opacity="0" result="BackgroundImageFix"/>
<feGaussianBlur in="BackgroundImageFix" stdDeviation="2"/>
<feComposite in2="SourceAlpha" operator="in" result="effect1_backgroundBlur_5_173"/>
<feBlend mode="normal" in="SourceGraphic" in2="effect1_backgroundBlur_5_173" result="shape"/>
</filter>
<filter id="filter1_bd_5_173" x="0.97438" y="148.338" width="284.903" height="82.3574" filterUnits="userSpaceOnUse" color-interpolation-filters="sRGB">
<feFlood flood-opacity="0" result="BackgroundImageFix"/>
<feGaussianBlur in="BackgroundImageFix" stdDeviation="2"/>
<feComposite in2="SourceAlpha" operator="in" result="effect1_backgroundBlur_5_173"/>
<feColorMatrix in="SourceAlpha" type="matrix" values="0 0 0 0 0 0 0 0 0 0 0 0 0 0 0 0 0 0 127 0" result="hardAlpha"/>
<feOffset dy="4"/>
<feGaussianBlur stdDeviation="2"/>
<feComposite in2="hardAlpha" operator="out"/>
<feColorMatrix type="matrix" values="0 0 0 0 0 0 0 0 0 0 0 0 0 0 0 0 0 0 0.25 0"/>
<feBlend mode="normal" in2="effect1_backgroundBlur_5_173" result="effect2_dropShadow_5_173"/>
<feBlend mode="normal" in="SourceGraphic" in2="effect2_dropShadow_5_173" result="shape"/>
</filter>
<linearGradient id="paint0_linear_5_173" x1="131.676" y1="61.696" x2="131.676" y2="228" gradientUnits="userSpaceOnUse">
<stop/>
<stop offset="1" stop-color="#FF0000"/>
</linearGradient>
<linearGradient id="paint1_linear_5_173" x1="128.838" y1="37.9163" x2="128.838" y2="161.471" gradientUnits="userSpaceOnUse">
<stop stop-color="#572F19"/>
<stop offset="1" stop-color="#1B0C04"/>
</linearGradient>
<linearGradient id="paint2_linear_5_173" x1="86.9554" y1="162.951" x2="86.9554" y2="201.459" gradientUnits="userSpaceOnUse">
<stop stop-color="#FF0000"/>
<stop offset="1"/>
</linearGradient>
<linearGradient id="paint3_linear_5_173" x1="197.646" y1="162.031" x2="197.646" y2="198.851" gradientUnits="userSpaceOnUse">
<stop stop-color="#FF0000"/>
<stop offset="1"/>
</linearGradient>
<linearGradient id="paint4_linear_5_173" x1="170.644" y1="162.951" x2="170.644" y2="201.305" gradientUnits="userSpaceOnUse">
<stop stop-color="#FF0000"/>
<stop offset="1"/>
</linearGradient>
<linearGradient id="paint5_linear_5_173" x1="142.032" y1="162.951" x2="142.032" y2="200.538" gradientUnits="userSpaceOnUse">
<stop stop-color="#FF0000"/>
<stop offset="1"/>
</linearGradient>
<linearGradient id="paint6_linear_5_173" x1="224.724" y1="161.417" x2="224.724" y2="199.004" gradientUnits="userSpaceOnUse">
<stop stop-color="#FF0000"/>
<stop offset="1"/>
</linearGradient>
<linearGradient id="paint7_linear_5_173" x1="59.8006" y1="162.031" x2="59.8006" y2="199.618" gradientUnits="userSpaceOnUse">
<stop stop-color="#FF0000"/>
<stop offset="1"/>
</linearGradient>
<linearGradient id="paint8_linear_5_173" x1="113.727" y1="162.031" x2="113.727" y2="200.538" gradientUnits="userSpaceOnUse">
<stop stop-color="#FF0000"/>
<stop offset="1"/>
</linearGradient>
<linearGradient id="paint9_linear_5_173" x1="29.5007" y1="162.031" x2="29.5007" y2="210.664" gradientUnits="userSpaceOnUse">
<stop stop-color="#FF0000"/>
<stop offset="1"/>
</linearGradient>
<linearGradient id="paint10_linear_5_173" x1="254.947" y1="161.417" x2="254.947" y2="209.743" gradientUnits="userSpaceOnUse">
<stop stop-color="#FF0000"/>
<stop offset="1"/>
</linearGradient>
</defs>
</svg>
